<?xml version="1.0" standalone="no"?><!DOCTYPE svg PUBLIC "-//W3C//DTD SVG 1.1//EN" "http://www.w3.org/Graphics/SVG/1.1/DTD/svg11.dtd"><svg t="1619448939634" class="icon" viewBox="0 0 1024 1024" version="1.1" xmlns="http://www.w3.org/2000/svg" p-id="1692" xmlns:xlink="http://www.w3.org/1999/xlink" width="200" height="200"><defs><style type="text/css"></style></defs><path d="M695.75 508.48m-200.81 0a200.81 200.81 0 1 0 401.62 0 200.81 200.81 0 1 0-401.62 0Z" fill="#C60022" opacity=".2" p-id="1693"></path><path d="M104.58 487.23c11.61-2.47 23.22-5.38 34.94-7.42 6.66-1.08 9.89-3.76 10.97-10.86 1.4-10.54 4.08-20.86 6.23-31.17 0.33-1.83 0.54-3.65 2.37-4.73 2.69 13.22 5.7 26.34 8.17 39.45 0.75 3.97 2.37 5.48 6.24 6.23 12.9 2.58 25.69 5.59 38.49 9.68-12.69 2.79-25.26 5.7-37.95 8.17-4.19 0.86-6.02 2.37-6.88 6.67-2.37 12.9-5.27 25.8-8.17 39.56-3.65-6.34-3.54-13.11-5.16-19.24-1.83-6.99-3.33-14.08-4.4-21.29-0.54-3.87-2.47-4.94-5.92-5.7-12.9-2.58-25.8-5.48-38.81-8.28-0.12-0.1-0.12-0.53-0.12-1.07z" fill="#C60022" opacity=".2" p-id="1694"></path><path d="M830.82 801.14c11.13-2.37 22.26-5.15 33.49-7.11 6.39-1.03 9.48-3.6 10.51-10.4 1.34-10.1 3.91-19.99 5.98-29.88 0.31-1.75 0.51-3.5 2.26-4.53 2.58 12.67 5.46 25.24 7.83 37.81 0.72 3.81 2.27 5.25 5.98 5.97 12.37 2.47 24.63 5.36 36.89 9.28-12.16 2.68-24.21 5.46-36.37 7.83-4.02 0.82-5.77 2.27-6.6 6.39-2.27 12.36-5.05 24.73-7.83 37.91-3.51-6.08-3.4-12.57-4.95-18.44-1.76-6.7-3.19-13.49-4.23-20.4-0.51-3.71-2.37-4.74-5.67-5.46-12.37-2.47-24.73-5.25-37.2-7.93 0.01-0.22-0.09-0.63-0.09-1.04z" fill="#FFA083" p-id="1695"></path><path d="M236.58 188.72c14.32-3.05 28.64-6.63 43.09-9.15 8.22-1.32 12.2-4.64 13.52-13.39 1.72-12.99 5.04-25.72 7.69-38.45 0.4-2.25 0.67-4.51 2.92-5.83 3.31 16.31 7.03 32.48 10.07 48.66 0.93 4.91 2.92 6.76 7.69 7.69 15.91 3.18 31.69 6.89 47.47 11.93-15.65 3.44-31.16 7.02-46.8 10.07-5.17 1.06-7.43 2.92-8.49 8.22-2.92 15.91-6.5 31.82-10.08 48.79-4.51-7.82-4.37-16.17-6.36-23.73-2.25-8.62-4.11-17.36-5.43-26.25-0.67-4.78-3.05-6.1-7.3-7.03-15.91-3.18-31.82-6.76-47.86-10.21-0.13-0.13-0.13-0.66-0.13-1.32z" fill="#C60022" opacity=".67" p-id="1696"></path><path d="M624.11 416.76c95.28 0 172.79-77.47 172.79-172.69S719.39 71.43 624.11 71.43c-95.27 0-172.69 77.46-172.69 172.69 0 95.22 77.46 172.64 172.69 172.64z m0-305.35c73.21 0 132.77 59.53 132.77 132.69 0 73.17-59.56 132.7-132.77 132.7-73.25-0.08-132.61-59.43-132.69-132.68 0.07-73.26 59.43-132.63 132.69-132.71z" fill="#C60022" p-id="1697"></path><path d="M640.77 287.6a17.231 17.231 0 0 1-6.42 2.36c-2.59 0.53-5.23 0.8-7.87 0.79-3.41 0.07-6.8-0.48-10.01-1.62-2.78-0.97-5.36-2.41-7.63-4.27a30.922 30.922 0 0 1-6-6.86 83.41 83.41 0 0 1-5.13-9.37l-1.13-2.25-31.57 13.72 1.02 2.36a68.922 68.922 0 0 0 11.25 18.61c4.25 4.87 9.35 8.93 15.05 11.96a70.108 70.108 0 0 0 18.83 7.36v10.12c0 7.07 5.73 12.79 12.79 12.79 7.07 0 12.8-5.73 12.8-12.79v-9c12.3-1.41 22.48-5.33 30.2-11.7 10.03-8.56 15.11-20.74 15.11-36.23 0-14.43-5.19-25.61-15.38-33.23-9.5-7.37-20.18-13.07-31.58-16.86a126.27 126.27 0 0 1-21.41-9.57 18.164 18.164 0 0 1-5.77-4.72 7.498 7.498 0 0 1-1.48-4.38c-0.08-1.85 0.41-3.69 1.4-5.26a8.972 8.972 0 0 1 3.49-3.37 18.93 18.93 0 0 1 5.32-1.97c2-0.44 4.03-0.66 6.07-0.69 6.14 0 10.68 1.52 13.9 4.65 3.71 3.79 6.62 8.28 8.56 13.21l0.9 2.15 34.86-10.62-1.13-2.65a75.636 75.636 0 0 0-10.31-17.6c-3.7-4.57-8.17-8.47-13.19-11.54a59.272 59.272 0 0 0-19.56-7.66v-11.75c0-7.07-5.73-12.8-12.79-12.8-7.07 0-12.8 5.73-12.8 12.8v11.42c-9.3 1.5-18.03 5.42-25.33 11.37-10.05 8.28-15.15 18.98-15.15 31.8s4.4 23.08 13.11 30.6c8.11 6.63 20.16 12.96 35.83 18.81 7 2.49 13.69 5.81 19.91 9.86 4.4 2.88 6.53 6.28 6.53 10.38 0.07 2.59-0.51 5.17-1.68 7.49a8.691 8.691 0 0 1-3.61 4.15zM192.91 656.67c-7.97-7.97-20.93-7.97-28.91 0l-94.19 94.18c-3.82 3.8-6 9.08-5.99 14.48 0.03 5.46 2.15 10.59 6 14.45l166.9 166.82c3.98 3.98 9.22 5.98 14.45 5.98 5.24 0 10.47-1.99 14.46-5.98l94.19-94.18c3.82-3.8 6.01-9.07 6-14.47a20.456 20.456 0 0 0-5.99-14.48l-166.92-166.8z m117.52 187.28l-53.26 53.26c-3.31 3.31-8.7 3.31-12.01 0l-125.97-125.9a8.433 8.433 0 0 1-2.49-6.01c0-2.27 0.88-4.4 2.49-6.01l53.26-53.26a8.47 8.47 0 0 1 6-2.49h0.01c2.27 0 4.4 0.88 6 2.48l125.97 125.91a8.416 8.416 0 0 1 2.49 6.01c0 2.27-0.89 4.41-2.49 6.01zM941.94 498.46c-24.25-24.2-63.7-24.21-87.95 0.01l-93.7 93.68H510.3c-1.48-1.59-4.25-5.78-3.86-10.64 0.53-6.68 13.06-13.87 39.33-13.87h116.17c34.32 0 62.24-27.92 62.24-62.24s-27.92-62.24-62.24-62.24H387.64c-7.49 0-14.47 3.36-19.14 9.2L223.9 632.83a24.483 24.483 0 0 0 1.8 32.72l126.93 126.82c4.78 4.77 11.06 7.16 17.34 7.16 6.28 0 12.56-2.39 17.33-7.16l30.83-30.73h135.76v-0.01h1.23c13.28 0 24.08-10.97 24.08-24.45 0-13.48-10.8-24.45-24.08-24.45h-1.23v-0.07H407.87c-6.47 0-12.56 2.5-17.19 7.06l-20.66 20.6L276 646.37 399.44 492.3h262.51c7.26 0 13.16 5.91 13.16 13.16 0 7.26-5.91 13.16-13.16 13.16H545.77c-27.55 0-49.33 5.81-64.72 17.28-15.3 11.4-23.73 27.92-23.73 46.51 0 30.81 24.19 58.88 50.74 58.88h262.42c6.54-0.02 12.69-2.56 17.34-7.19L888.7 533.22c5.12-5.13 13.47-5.15 18.63-0.03 5.15 5.11 5.19 13.46 0.11 18.6L746.56 712.67h-25.93v0.07h-21.26c-13.28 0-24.08 10.97-24.08 24.45 0 13.48 10.81 24.45 24.08 24.45h21.26v0.01h36.17c6.46 0 12.77-2.62 17.31-7.19l168.1-168.08c24.07-24.33 23.95-63.76-0.27-87.92z" fill="#C60022" p-id="1698"></path><path d="M628.8 711.86c-14.45 0-26.16 11.71-26.16 26.16s11.71 26.16 26.16 26.16 26.16-11.71 26.16-26.16c0-14.44-11.72-26.16-26.16-26.16z" fill="#C60022" p-id="1699"></path></svg>